<svg version="1.1" xmlns="http://www.w3.org/2000/svg" viewBox="0 0 1533.04296875 607.046875" width="1533.04296875" height="607.046875">
  <!-- svg-source:excalidraw -->
  
  <defs>
    <style>
      @font-face {
        font-family: "Virgil";
        src: url("https://excalidraw.com/Virgil.woff2");
      }
      @font-face {
        font-family: "Cascadia";
        src: url("https://excalidraw.com/Cascadia.woff2");
      }
    </style>
  </defs>
  <rect x="0" y="0" width="1533.04296875" height="607.046875" fill="#ffffff"></rect><g stroke-linecap="round" transform="translate(16.90625 95.671875) rotate(0 91.44921875 89.951171875)"><path d="M1.16 -2.12 C61.96 -0.67, 120.48 3.53, 180.97 1.38 M-0.36 -0.76 C58.04 1.42, 118.88 0.92, 181.82 -1.85 M178.98 2.3 C186.72 39.22, 184.75 76.27, 179.99 180.28 M182.08 1.04 C181.48 47.75, 182.49 96.28, 181.23 180.46 M183.68 181.79 C136.11 180.05, 95.16 181.33, -3.58 177.1 M182.47 178.99 C117.27 179.22, 46.9 182.07, -1.17 177.99 M-2.38 183.44 C0.32 107.65, -0.02 37.38, -3.64 1.47 M0.19 178.87 C1.44 139.18, 3.95 102.12, -1.9 0.16" stroke="#000000" stroke-width="1" fill="none"></path></g><g transform="translate(60.515625 169.109375) rotate(0 56 12.5)"><text x="0" y="18" font-family="Virgil, Segoe UI Emoji" font-size="20px" fill="#000000" text-anchor="start" style="white-space: pre;" direction="ltr">DataFrame</text></g><g stroke-linecap="round" transform="translate(10 391.359375) rotate(0 99.69140625 98.365234375)"><path d="M-1.69 -1.55 C53.49 1.39, 108.67 0.3, 202.68 2.38 M-0.07 -0.55 C39.04 -2.31, 80.73 -1.52, 199.01 0.89 M198.79 0.52 C201.83 47.59, 202.55 99.77, 197.04 198.16 M198.8 1.45 C201.3 61.05, 199.84 127.06, 199.67 197.41 M195.52 194.35 C145.7 197.93, 84.51 204.17, -3.01 200.54 M199 195.37 C151.64 192.53, 104.2 192.67, -1.61 197.03 M-3.66 198.85 C2.04 132.07, 2.36 76.18, 2.44 -0.77 M0.82 195.4 C-0.98 138.96, 0.24 77.73, 1.87 -1.05" stroke="#000000" stroke-width="1" fill="none"></path></g><g transform="translate(15 478.224609375) rotate(0 94.5 11.5)"><text x="94.5" y="17" font-family="Virgil, Segoe UI Emoji" font-size="20px" fill="#000000" text-anchor="middle" style="white-space: pre;" direction="ltr">Dataset</text></g><g stroke-linecap="round"><g transform="translate(262.75390625 158.79296875) rotate(0 73.08028462992189 61.45232825955023)"><path d="M-0.5 -1.02 C7.08 18.03, 21.29 94.64, 46.44 115.41 C71.58 136.18, 132.63 122.13, 150.38 123.58 M-4.21 -4.05 C3.02 14.06, 19.38 89.25, 44.85 111.09 C70.31 132.92, 131.69 124.25, 148.6 126.95" stroke="#000000" stroke-width="1" fill="none"></path></g><g transform="translate(262.75390625 158.79296875) rotate(0 73.08028462992189 61.45232825955023)"><path d="M118.75 138.35 C131.42 133.6, 139.76 134.02, 150.05 126.04 M118.49 135.22 C131.99 131.51, 139.72 130.73, 149.42 127.27" stroke="#000000" stroke-width="1" fill="none"></path></g><g transform="translate(262.75390625 158.79296875) rotate(0 73.08028462992189 61.45232825955023)"><path d="M119.15 117.84 C131.85 119.93, 140.05 127.19, 150.05 126.04 M118.89 114.7 C132.36 118.24, 139.95 124.69, 149.42 127.27" stroke="#000000" stroke-width="1" fill="none"></path></g></g><g stroke-linecap="round"><g transform="translate(414.47680639000737 350.7263230364807) rotate(178.9914759612658 -82.01210252071036 69.36476291850965)"><path d="M-1.54 0.02 C-10.25 20.63, -22.69 102.59, -49.82 125.26 C-76.95 147.94, -145.24 133.62, -164.34 136.07 M2.82 -2.43 C-6.55 18.28, -24.18 104.06, -52.46 127.49 C-80.74 150.93, -148.16 136.93, -166.85 138.2" stroke="#000000" stroke-width="1" fill="none"></path></g><g transform="translate(414.47680639000737 350.7263230364807) rotate(178.9914759612658 -82.01210252071036 69.36476291850965)"><path d="M-138.09 128.49 C-152.84 130.73, -162.88 133.95, -163.87 138.12 M-137.38 131.43 C-149.08 130.04, -155.55 133.08, -165.1 138.56" stroke="#000000" stroke-width="1" fill="none"></path></g><g transform="translate(414.47680639000737 350.7263230364807) rotate(178.9914759612658 -82.01210252071036 69.36476291850965)"><path d="M-139.25 148.98 C-153.78 143.29, -163.38 138.57, -163.87 138.12 M-138.54 151.92 C-150.22 144.01, -156.32 140.51, -165.1 138.56" stroke="#000000" stroke-width="1" fill="none"></path></g></g><g stroke-linecap="round" transform="translate(446.68359375 215.3515625) rotate(0 107 103.990234375)"><path d="M111.04 2.34 C133.42 25.08, 163.85 48.07, 212.06 104.74 M107.85 1.72 C128.78 19.29, 152.48 40.64, 214.82 104.08 M217.01 101.41 C188.87 122.64, 165.87 149.88, 111.88 205.45 M214.48 102.85 C189.88 124.58, 166.19 147.44, 107.04 209.78 M111.23 206.24 C71.08 171.59, 31.14 135.32, -0.21 101.21 M108.54 207.99 C86.1 181.91, 58.26 157.72, 0.06 105.69 M-0.87 101.22 C24.18 78.04, 52.16 47.97, 108.59 -2.73 M1.67 102.86 C25.08 76.03, 52.58 50.18, 108.05 -1.79" stroke="#000000" stroke-width="1" fill="none"></path></g><g transform="translate(451.68359375 307.841796875) rotate(0 102 11.5)"><text x="102" y="17" font-family="Virgil, Segoe UI Emoji" font-size="20px" fill="#000000" text-anchor="middle" style="white-space: pre;" direction="ltr">Embed</text></g><g stroke-linecap="round"><g transform="translate(687.15625 315.328125) rotate(0 74.0745992782339 -1.3272930871695223)"><path d="M2.56 1.53 C27.18 1.11, 124.07 -3.59, 147.64 -4.19 M0.51 -0.1 C24.87 -0.05, 121.25 -1.72, 146.09 -1.49" stroke="#000000" stroke-width="1" fill="none"></path></g><g transform="translate(687.15625 315.328125) rotate(0 74.0745992782339 -1.3272930871695223)"><path d="M120.14 10.72 C124 1.89, 135.42 2.6, 148.89 -2.32 M118.5 8.35 C125.34 5.68, 128.82 3.32, 144.14 -0.77" stroke="#000000" stroke-width="1" fill="none"></path></g><g transform="translate(687.15625 315.328125) rotate(0 74.0745992782339 -1.3272930871695223)"><path d="M120.03 -9.8 C123.68 -12.53, 135.13 -5.7, 148.89 -2.32 M118.39 -12.17 C125.22 -10.22, 128.73 -7.95, 144.14 -0.77" stroke="#000000" stroke-width="1" fill="none"></path></g></g><g stroke-linecap="round" transform="translate(858.35546875 209.07421875) rotate(0 99.5 101.068359375)"><path d="M104 -1.45 C120.42 24.22, 139.71 46.1, 202.99 101.71 M99.82 1.61 C138.52 38.83, 178.96 81.07, 200.22 103.27 M202.63 105.41 C166.86 132.66, 134.97 168.83, 99.35 198.5 M197.25 100.11 C166.69 135.8, 130.52 168.26, 101.09 200.77 M100.93 204.77 C78.68 177.83, 54.18 156.71, -1.15 99.09 M101.35 201.89 C63.41 164.45, 25.38 127.89, 0.4 103.98 M-3.28 101.68 C24.94 74.93, 62.78 45.11, 103.24 2.1 M1.77 101.32 C35.33 66.26, 68.07 33.3, 99.11 -1.07" stroke="#000000" stroke-width="1" fill="none"></path></g><g transform="translate(863.35546875 298.642578125) rotate(0 94.5 11.5)"><text x="94.5" y="17" font-family="Virgil, Segoe UI Emoji" font-size="20px" fill="#000000" text-anchor="middle" style="white-space: pre;" direction="ltr">Cluster</text></g><g stroke-linecap="round"><g transform="translate(1067.901858365196 311.1032600872047) rotate(0 67.16589214975556 -0.6959755261065368)"><path d="M-0.97 -1.03 C21.17 -1.32, 112.92 -0.18, 135.26 -0.64 M3.7 -4.05 C25.33 -5.34, 112.38 -5.59, 133.52 -5.24" stroke="#000000" stroke-width="1" fill="none"></path></g><g transform="translate(1067.901858365196 311.1032600872047) rotate(0 67.16589214975556 -0.6959755261065368)"><path d="M103.82 6.22 C117.18 -0.68, 123.57 -3.68, 130.61 -5.14 M105.63 4.83 C114.12 3.25, 121.09 -0.6, 132.66 -4.83" stroke="#000000" stroke-width="1" fill="none"></path></g><g transform="translate(1067.901858365196 311.1032600872047) rotate(0 67.16589214975556 -0.6959755261065368)"><path d="M103.91 -14.3 C117.4 -13.28, 123.76 -8.36, 130.61 -5.14 M105.72 -15.69 C113.97 -11.71, 120.92 -9.99, 132.66 -4.83" stroke="#000000" stroke-width="1" fill="none"></path></g></g><g stroke-linecap="round" transform="translate(1208.05859375 207.96875) rotate(0 112.736328125 103.4765625)"><path d="M112.84 0.06 C145.37 32, 179.92 62.03, 228.39 107.49 M114.72 -0.39 C145 27.66, 174.03 54.57, 225.45 105.48 M223.63 106.38 C202.62 122.61, 171.63 146.79, 114.54 206.54 M225.2 105.95 C189.29 134.47, 156.24 162.72, 111.25 207.83 M111.51 206.14 C73.1 169.15, 32.23 138.08, 0.22 107.64 M114.28 205.68 C69.5 170.35, 30.38 130.59, -0.2 104.44 M0.23 106.22 C25.53 74.14, 57.87 48.39, 113.36 0.02 M-0.24 102.12 C45.07 60.57, 87.88 18.83, 112.22 0.26" stroke="#000000" stroke-width="1" fill="none"></path></g><g transform="translate(1213.05859375 299.9453125) rotate(0 107.736328125 11.5)"><text x="107.736328125" y="17" font-family="Virgil, Segoe UI Emoji" font-size="20px" fill="#000000" text-anchor="middle" style="white-space: pre;" direction="ltr">Deduplicate</text></g><g transform="translate(355.70703125 522.046875) rotate(0 209 37.5)"><text x="0" y="18" font-family="Virgil, Segoe UI Emoji" font-size="20px" fill="#000000" text-anchor="start" style="white-space: pre;" direction="ltr">This step maps the input data into</text><text x="0" y="43" font-family="Virgil, Segoe UI Emoji" font-size="20px" fill="#000000" text-anchor="start" style="white-space: pre;" direction="ltr">embeddings or any forms of representation</text><text x="0" y="68" font-family="Virgil, Segoe UI Emoji" font-size="20px" fill="#000000" text-anchor="start" style="white-space: pre;" direction="ltr">for next stage.</text></g><g stroke-linecap="round"><g transform="translate(554.41015625 512.375) rotate(0 7.5092962291464005 -37.384485680982436)"><path d="M1.77 2.41 C4.68 -1.1, 15.56 -7.33, 15.74 -20.59 C15.92 -33.86, 4.67 -67.7, 2.83 -77.18 M-0.72 1.26 C1.93 -3.04, 12.9 -11.72, 13.19 -24.27 C13.48 -36.83, 2.17 -65.63, 1.02 -74.1" stroke="#000000" stroke-width="1" fill="none"></path></g><g transform="translate(554.41015625 512.375) rotate(0 7.5092962291464005 -37.384485680982436)"><path d="M20.36 -52.01 C16.56 -56.43, 9.22 -59.2, 0.51 -72.72 M18.18 -50.04 C9.82 -58.69, 6.48 -67.26, 2.07 -72.64" stroke="#000000" stroke-width="1" fill="none"></path></g><g transform="translate(554.41015625 512.375) rotate(0 7.5092962291464005 -37.384485680982436)"><path d="M1.92 -47.16 C2.48 -52.96, -0.48 -56.88, 0.51 -72.72 M-0.25 -45.19 C-1.67 -55.4, 1.99 -65.81, 2.07 -72.64" stroke="#000000" stroke-width="1" fill="none"></path></g></g><g transform="translate(744.859375 10) rotate(0 263.5 50)"><text x="0" y="18" font-family="Virgil, Segoe UI Emoji" font-size="20px" fill="#000000" text-anchor="start" style="white-space: pre;" direction="ltr">Similar embeddings should be grouped together</text><text x="0" y="43" font-family="Virgil, Segoe UI Emoji" font-size="20px" fill="#000000" text-anchor="start" style="white-space: pre;" direction="ltr">in this step.</text><text x="0" y="68" font-family="Virgil, Segoe UI Emoji" font-size="20px" fill="#000000" text-anchor="start" style="white-space: pre;" direction="ltr"></text><text x="0" y="93" font-family="Virgil, Segoe UI Emoji" font-size="20px" fill="#000000" text-anchor="start" style="white-space: pre;" direction="ltr">Not all groups share the same "tightness" by nature.</text></g><g stroke-linecap="round"><g transform="translate(975.4668455704327 121.484375) rotate(0 -6.642626820432724 39.65625)"><path d="M-0.67 -1.69 C-0.55 4.47, 3.22 23.91, 0.51 37.82 C-2.19 51.73, -14.54 75.07, -16.9 81.79 M4.16 3.56 C5.17 8.87, 9.59 21.62, 5.7 33.97 C1.82 46.31, -16.27 69.91, -19.18 77.61" stroke="#000000" stroke-width="1" fill="none"></path></g><g transform="translate(975.4668455704327 121.484375) rotate(0 -6.642626820432724 39.65625)"><path d="M-17.7 51 C-13.22 59.74, -13.86 71.22, -20.81 78.43 M-15.99 54.98 C-15.09 61.75, -20.39 73.37, -18 79.16" stroke="#000000" stroke-width="1" fill="none"></path></g><g transform="translate(975.4668455704327 121.484375) rotate(0 -6.642626820432724 39.65625)"><path d="M-3.55 58.99 C-3.24 65.33, -8 74.49, -20.81 78.43 M-1.84 62.97 C-6.42 66.86, -17.24 75.38, -18 79.16" stroke="#000000" stroke-width="1" fill="none"></path></g></g><g transform="translate(1105.04296875 499.32421875) rotate(0 209 25)"><text x="0" y="18" font-family="Virgil, Segoe UI Emoji" font-size="20px" fill="#000000" text-anchor="start" style="white-space: pre;" direction="ltr">Then you have to decide how to deal with</text><text x="0" y="43" font-family="Virgil, Segoe UI Emoji" font-size="20px" fill="#000000" text-anchor="start" style="white-space: pre;" direction="ltr">a cluster of duplicates.</text></g><g stroke-linecap="round"><g transform="translate(1320.7159558271057 489.49609375) rotate(0 6.050416325232504 -35.309677259016894)"><path d="M1.12 2.4 C3.27 -9.84, 10.92 -58.68, 12.85 -70.74 M-1.72 1.23 C0.13 -9.34, 8.86 -55.88, 11.01 -67.17" stroke="#000000" stroke-width="1" fill="none"></path></g><g transform="translate(1320.7159558271057 489.49609375) rotate(0 6.050416325232504 -35.309677259016894)"><path d="M19.29 -36.5 C13.69 -45.47, 13.36 -59.09, 7.93 -69.61 M15.52 -39.07 C13.65 -43.72, 12.67 -54.47, 10.19 -67.38" stroke="#000000" stroke-width="1" fill="none"></path></g><g transform="translate(1320.7159558271057 489.49609375) rotate(0 6.050416325232504 -35.309677259016894)"><path d="M-0.87 -40.3 C-0.41 -48.31, 5.25 -60.79, 7.93 -69.61 M-4.65 -42.88 C-0.99 -46.63, 3.47 -56.34, 10.19 -67.38" stroke="#000000" stroke-width="1" fill="none"></path></g></g></svg>